<?xml version="1.0" encoding="UTF-8" standalone="no"?>
<svg
   xmlns:dc="http://purl.org/dc/elements/1.1/"
   xmlns:cc="http://creativecommons.org/ns#"
   xmlns:rdf="http://www.w3.org/1999/02/22-rdf-syntax-ns#"
   xmlns:svg="http://www.w3.org/2000/svg"
   xmlns="http://www.w3.org/2000/svg"
   viewBox="0 0 427.93829 99.051277"
   height="99.051277"
   width="427.93829"
   id="svg3767"
   version="1.1">
  <metadata
     id="metadata3773">
    <rdf:RDF>
      <cc:Work
         rdf:about="">
        <dc:format>image/svg+xml</dc:format>
        <dc:type
           rdf:resource="http://purl.org/dc/dcmitype/StillImage" />
        <dc:title></dc:title>
      </cc:Work>
    </rdf:RDF>
  </metadata>
  <defs
     id="defs3771" />
  <path
     id="path3859"
     d="M 33.690637,96.564275 C 10.767708,88.472875 -3.2685645,65.158505 0.6552995,41.692295 3.5557015,24.346775 14.999723,10.149205 31.847646,2.9947449 c 8.135541,-3.45474995 23.441263,-4.0125 32.702993,-1.19172 21.44163,6.53033 35.29701,25.2359801 35.29701,47.6532401 0,18.00348 -8.26928,32.73516 -23.96562,42.69464 -11.19007,7.10021 -29.232771,8.987535 -42.191392,4.41337 z m 29.355632,-7.67492 c 13.02664,-4.38836 22.34591,-13.75705 26.83096,-26.97327 1.7955,-5.29085 2.10214,-7.94542 1.6945,-14.66937 -1.94662,-32.10883 -37.437247,-49.8003601 -64.747308,-32.27555 -21.5890505,13.85366 -24.7824815,45.29253 -6.462835,63.62569 11.413274,11.42169 27.685444,15.34538 42.684683,10.2925 z m -31.45945,-25.69339 c -7.006545,-7.02213 -12.739173,-13.21774 -12.739173,-13.76803 0,-1.82196 25.742223,-26.74902 26.890733,-26.0392 0.610097,0.37706 1.109267,2.58144 1.109267,4.89862 0,3.95716 -0.516373,4.72676 -8.501148,12.67005 l -8.501148,8.45699 8.566678,8.60655 c 8.386009,8.42505 8.560024,8.69801 8.251148,12.94322 -0.173542,2.38516 -0.770402,4.48576 -1.326357,4.66799 -0.555955,0.18223 -6.743455,-5.41405 -13.75,-12.43619 z m 22.92749,12.09363 c -0.366663,-0.36666 -0.666663,-2.49526 -0.666663,-4.73021 0,-3.76297 0.628843,-4.69532 8.501153,-12.60427 l 8.50115,-8.54072 -8.50115,-8.45699 c -7.98478,-7.94329 -8.501153,-8.71289 -8.501153,-12.67005 0,-2.31718 0.499173,-4.52156 1.109263,-4.89862 1.15981,-0.7168 26.89074,24.22644 26.89074,26.06753 0,1.05055 -25.06265,26.5 -26.09724,26.5 -0.31319,0 -0.86943,-0.3 -1.2361,-0.66667 z M 197.34765,63.465785 c -7.22605,-2.53397 -13.5,-11.83314 -13.5,-20.00952 0,-8.82192 6.97343,-18.35795 15,-20.51222 5.36747,-1.44058 12.57278,-0.14024 17.10491,3.08692 3.57873,2.54828 3.60871,3.571 0.20873,7.11982 l -2.68636,2.80395 -2.17024,-2.03883 c -1.19364,-1.12136 -3.748,-2.29488 -5.67636,-2.60781 -6.85717,-1.11276 -12.49298,7.1693 -10.64832,15.64817 0.86194,3.96182 5.86265,9 8.93308,9 2.81845,0 7.56515,-2.59495 8.31338,-4.5448 1.15053,-2.99825 0.63756,-3.4552 -3.87882,-3.4552 -4.47619,0 -4.5,-0.0185 -4.5,-3.5 v -3.5 h 9.5 9.5 l -0.006,3.75 c -0.0137,9.22289 -5.49159,16.90585 -13.67364,19.17788 -4.92243,1.36688 -6.93279,1.29573 -11.82078,-0.41836 z m 42.34264,0.56707 c -9.24269,-2.97059 -14.12045,-9.30137 -14.67079,-19.04106 -0.44591,-7.89157 1.56889,-12.84469 7.25611,-17.83813 6.47516,-5.68527 14.84033,-6.3952 22.8083,-1.93568 13.13894,7.35362 13.34188,28.62685 0.34575,36.24309 -4.69298,2.75027 -11.64808,3.88672 -15.73937,2.57178 z m 11.8516,-11.49001 c 2.55294,-2.19594 2.80576,-3.01472 2.80576,-9.08658 0,-6.07186 -0.25282,-6.89064 -2.80576,-9.08658 -3.00847,-2.58778 -8.32909,-3.21439 -11.74963,-1.38378 -6.27371,3.35759 -6.40337,17.27399 -0.19463,20.89025 3.23371,1.88346 8.94582,1.24584 11.94426,-1.33331 z m -134.23926,8.66342 c 0.3695,-1.5125 3.83974,-10.76026 7.71165,-20.55057 l 7.03985,-17.80058 4.53218,0.30058 4.53219,0.30057 7.86457,19.95076 c 4.32552,10.97291 7.86458,20.10893 7.86458,20.30226 0,0.19332 -2.32449,0.21548 -5.16553,0.0492 -4.9177,-0.28776 -5.22169,-0.47018 -6.33613,-3.80226 l -1.1706,-3.5 -7.53936,-0.28982 -7.53935,-0.28983 -1.61642,4.03983 c -1.56165,3.90299 -1.77283,4.03986 -6.23292,4.03986 -4.53238,0 -4.60426,-0.0501 -3.94471,-2.75 z m 22.03592,-17.27578 c -2.64044,-7.48382 -3.05813,-7.69256 -4.85291,-2.42519 -0.90089,2.64399 -1.63799,5.17709 -1.63799,5.62911 0,0.45202 1.78004,0.82186 3.95564,0.82186 h 3.95564 z m 18.5091,-0.47422 v -20.5 h 5 5 v 16.5 16.5 h 7 7 v 4 4 h -12 -12 z m 111,0 v -20.5 h 9.09887 c 6.21444,0 10.15257,0.50001 12.42273,1.57727 3.41966,1.62274 6.4784,6.51225 6.4784,10.35598 0,3.50037 -2.57621,8.59088 -5.38642,10.64342 l -2.63332,1.92333 4.57045,5.5 c 2.51375,3.025 5.47384,6.7375 6.57797,8.25 l 2.00751,2.75 h -5.97344 -5.97344 l -5.34465,-7.21797 -5.34466,-7.21797 -0.29381,7.21797 -0.29381,7.21797 h -4.95619 -4.95619 z m 16.42857,-4.07143 c 3.21531,-3.2153 1.07289,-8.42857 -3.46375,-8.42857 -2.89112,0 -2.96482,0.1243 -2.96482,5 0,4.62745 0.18095,5 2.42857,5 1.33572,0 3.13572,-0.70714 4,-1.57143 z m 18.57143,4.07143 v -20.5 h 5 5 v 20.5 20.5 h -5 -5 z m 22,4 v -16.5 h -5 -5 v -4 -4 h 14.5 14.5 v 4 4 h -4.5 -4.5 v 16.5 16.5 h -5 -5 z m 22,-4 v -20.5 h 5 5 v 8.5 8.5 h 6 6 v -8.5 -8.5 h 5 5 v 20.5 20.5 h -5 -5 v -8 -8 h -6 -6 v 8 8 h -5 -5 z m 35.29433,14.81087 c 0.32559,-3.19598 1.13638,-12.44837 1.80177,-20.56087 l 1.20979,-14.75 h 5.19482 5.19482 l 4.31026,11.63119 4.31025,11.63119 4.22318,-11.38119 4.22318,-11.38119 5.05005,-0.29988 5.05005,-0.29987 0.54837,4.29987 c 0.30161,2.36494 1.01957,10.14988 1.59548,17.29988 0.5759,7.15 1.28046,14.4625 1.56569,16.25 l 0.51859,3.25 h -4.90071 -4.90071 l -0.6375,-6.75 c -0.35062,-3.7125 -0.64069,-8.4375 -0.6446,-10.5 -0.004,-2.0625 -0.41961,-3.75 -0.92378,-3.75 -0.50416,0 -2.45132,4.6125 -4.32701,10.25 -3.27444,9.84153 -3.53273,10.26218 -6.48141,10.55576 l -3.07107,0.30575 -3.96391,-11.80575 -3.96392,-11.80576 -0.6955,10 c -0.38253,5.5 -0.78618,10.675 -0.897,11.5 -0.14117,1.05087 -1.66562,1.59308 -5.09132,1.81087 l -4.88983,0.31087 z"
     style="fill:#000000" />
</svg>
