<?xml version="1.0" encoding="UTF-8" standalone="no"?>
<svg
   xmlns:dc="http://purl.org/dc/elements/1.1/"
   xmlns:cc="http://creativecommons.org/ns#"
   xmlns:rdf="http://www.w3.org/1999/02/22-rdf-syntax-ns#"
   xmlns:svg="http://www.w3.org/2000/svg"
   xmlns="http://www.w3.org/2000/svg"
   viewBox="0 0 99.847648 99.051277"
   height="99.051277"
   width="99.847649"
   id="svg3767"
   version="1.1">
  <metadata
     id="metadata3773">
    <rdf:RDF>
      <cc:Work
         rdf:about="">
        <dc:format>image/svg+xml</dc:format>
        <dc:type
           rdf:resource="http://purl.org/dc/dcmitype/StillImage" />
        <dc:title></dc:title>
      </cc:Work>
    </rdf:RDF>
  </metadata>
  <defs
     id="defs3771" />
  <path
     id="path3859"
     d="M 33.690637,96.564275 C 10.767708,88.472875 -3.2685645,65.158505 0.65529948,41.692295 3.5557015,24.346775 14.999723,10.149205 31.847646,2.9947449 c 8.135541,-3.45474992 23.441263,-4.0125 32.702993,-1.19172 21.44163,6.53033 35.29701,25.2359801 35.29701,47.6532401 0,18.00348 -8.26928,32.73516 -23.96562,42.69464 -11.19007,7.10021 -29.232771,8.987535 -42.191392,4.41337 z m 29.355632,-7.67492 c 13.02664,-4.38836 22.34591,-13.75705 26.83096,-26.97327 1.7955,-5.29085 2.10214,-7.94542 1.6945,-14.66937 -1.94662,-32.10883 -37.437247,-49.8003601 -64.747308,-32.27555 -21.5890505,13.85366 -24.7824815,45.29253 -6.462835,63.62569 11.413274,11.42169 27.685444,15.34538 42.684683,10.2925 z m -31.45945,-25.69339 c -7.006545,-7.02213 -12.739173,-13.21774 -12.739173,-13.76803 0,-1.82196 25.742223,-26.74902 26.890733,-26.0392 0.610097,0.37706 1.109267,2.58144 1.109267,4.89862 0,3.95716 -0.516373,4.72676 -8.501148,12.67005 l -8.501148,8.45699 8.566678,8.60655 c 8.386009,8.42505 8.560024,8.69801 8.251148,12.94322 -0.173542,2.38516 -0.770402,4.48576 -1.326357,4.66799 -0.555955,0.18223 -6.743455,-5.41405 -13.75,-12.43619 z m 22.92749,12.09363 c -0.366663,-0.36666 -0.666663,-2.49526 -0.666663,-4.73021 0,-3.76297 0.628843,-4.69532 8.501153,-12.60427 l 8.50115,-8.54072 -8.50115,-8.45699 c -7.98478,-7.94329 -8.501153,-8.71289 -8.501153,-12.67005 0,-2.31718 0.499173,-4.52156 1.109263,-4.89862 1.15981,-0.7168 26.89074,24.22644 26.89074,26.06753 0,1.05055 -25.06265,26.5 -26.09724,26.5 -0.31319,0 -0.86943,-0.3 -1.2361,-0.66667 z"
     style="fill:#000000" />
</svg>
